<?xml version="1.0" encoding="UTF-8" standalone="no"?>
<!DOCTYPE svg PUBLIC "-//W3C//DTD SVG 20010904//EN"
              "http://www.w3.org/TR/2001/REC-SVG-20010904/DTD/svg10.dtd">

<svg xmlns="http://www.w3.org/2000/svg"
     width="2.42667in" height="3.12333in"
     viewBox="0 0 728 937">
  <path id="fries"
        fill="URL(#friesGrad)" stroke="black" stroke-width="1"
        d="M 278.00,228.00
           C 278.00,228.00 328.00,252.00 328.00,252.00
             328.00,252.00 316.00,278.00 316.00,298.00
             316.00,318.00 326.00,350.00 336.00,382.00
             346.00,414.00 362.00,500.00 356.00,506.00
             350.00,512.00 334.00,510.00 332.00,548.00
             330.00,586.00 328.00,674.00 328.00,674.00
             328.00,674.00 260.00,628.00 260.00,628.00
             260.00,628.00 288.00,500.00 288.00,500.00
             288.00,500.00 306.00,456.00 306.00,446.00
             306.00,436.00 288.00,366.00 286.00,356.00
             284.00,346.00 252.00,254.00 252.00,254.00
             252.00,254.00 278.00,228.00 278.00,228.00 Z
           M 432.00,188.00
           C 432.00,188.00 438.00,178.00 440.00,178.00
             442.00,178.00 464.00,174.00 466.00,174.00
             468.00,174.00 488.00,186.00 488.00,194.00
             488.00,202.00 468.00,314.00 468.00,314.00
             468.00,314.00 446.00,374.00 444.00,380.00
             442.00,386.00 432.00,444.00 432.00,452.00
             432.00,460.00 432.00,588.00 432.00,600.00
             432.00,612.00 430.00,674.00 430.00,676.00
             430.00,678.00 412.00,686.00 398.00,670.00
             384.00,654.00 404.00,580.00 404.00,568.00
             404.00,556.00 392.00,470.00 392.00,460.00
             392.00,450.00 386.00,392.00 386.00,386.00
             386.00,380.00 406.00,326.00 410.00,316.00
             414.00,306.00 426.00,232.00 426.00,230.00
             426.00,228.00 432.00,188.00 432.00,188.00 Z
           M 380.00,292.00
           C 382.00,292.00 416.00,282.00 416.00,282.00
             416.00,282.00 440.00,306.00 436.00,322.00
             432.00,338.00 390.00,420.00 390.00,424.00
             390.00,428.00 380.00,508.00 380.00,514.00
             380.00,520.00 376.00,564.00 378.00,578.00
             380.00,592.00 380.00,616.00 380.00,618.00
             380.00,620.00 342.00,594.00 340.00,592.00
             338.00,590.00 336.00,502.00 336.00,496.00
             336.00,490.00 368.00,334.00 368.00,332.00
             368.00,330.00 378.00,292.00 380.00,292.00 Z
           M 216.00,312.00
           C 216.00,312.00 246.00,304.00 246.00,304.00
             246.00,304.00 266.00,352.00 266.00,354.00
             266.00,356.00 250.00,422.00 250.00,422.00
             250.00,422.00 240.00,526.00 240.00,530.00
             240.00,534.00 246.00,538.00 240.00,574.00
             234.00,610.00 228.00,646.00 212.00,646.00
             196.00,646.00 166.00,644.00 166.00,610.00
             166.00,576.00 204.00,454.00 204.00,450.00
             204.00,446.00 202.00,434.00 202.00,414.00
             202.00,394.00 200.00,372.00 200.00,368.00
             200.00,364.00 216.00,312.00 216.00,312.00 Z
           M 208.00,324.00
           C 208.00,322.00 244.00,306.00 244.00,306.00
             244.00,306.00 264.00,332.00 264.00,334.00
             264.00,336.00 254.00,354.00 254.00,362.00
             254.00,370.00 264.00,450.00 264.00,454.00
             264.00,458.00 260.00,486.00 258.00,492.00
             256.00,498.00 254.00,538.00 254.00,542.00
             254.00,546.00 238.00,590.00 234.00,594.00
             230.00,598.00 198.00,588.00 196.00,586.00
             194.00,584.00 202.00,538.00 202.00,536.00
             202.00,534.00 206.00,504.00 206.00,492.00
             206.00,480.00 208.00,440.00 208.00,436.00
             208.00,432.00 210.00,390.00 210.00,390.00
             210.00,390.00 208.00,362.00 208.00,362.00M 156.00,258.00
           C 156.00,258.00 186.00,258.00 188.00,258.00
             190.00,258.00 202.00,338.00 200.00,342.00
             198.00,346.00 182.00,410.00 182.00,410.00
             182.00,410.00 200.00,464.00 198.00,474.00
             196.00,484.00 186.00,510.00 182.00,528.00
             178.00,546.00 164.00,584.00 164.00,584.00
             164.00,584.00 142.00,500.00 142.00,496.00
             142.00,492.00 152.00,458.00 156.00,454.00
             160.00,450.00 170.00,396.00 170.00,392.00
             170.00,388.00 168.00,358.00 168.00,352.00
             168.00,346.00 156.00,258.00 156.00,258.00 Z
           M 226.00,144.00
           C 226.00,144.00 184.00,114.00 184.00,114.00
             184.00,114.00 184.00,160.00 182.00,162.00
             180.00,164.00 180.00,180.00 180.00,184.00
             180.00,188.00 202.00,262.00 202.00,262.00
             202.00,262.00 206.00,230.00 216.00,272.00
             226.00,314.00 256.00,384.00 256.00,384.00
             256.00,384.00 266.00,466.00 266.00,472.00
             266.00,478.00 254.00,568.00 254.00,568.00
             254.00,568.00 284.00,628.00 286.00,628.00
             288.00,628.00 350.00,604.00 352.00,602.00
             354.00,600.00 290.00,438.00 290.00,436.00
             290.00,434.00 286.00,368.00 286.00,364.00
             286.00,360.00 282.00,316.00 272.00,300.00
             262.00,284.00 242.00,234.00 242.00,234.00
             242.00,234.00 242.00,202.00 242.00,202.00M 258.00,130.00
           C 258.00,130.00 276.00,128.00 276.00,128.00
             276.00,128.00 296.00,152.00 296.00,156.00
             296.00,160.00 298.00,260.00 296.00,262.00
             294.00,264.00 292.00,310.00 292.00,310.00
             292.00,310.00 278.00,422.00 278.00,422.00
             278.00,422.00 268.00,590.00 268.00,590.00
             268.00,590.00 210.00,640.00 210.00,638.00
             210.00,636.00 210.00,546.00 210.00,542.00
             210.00,538.00 250.00,366.00 250.00,360.00
             250.00,354.00 258.00,232.00 258.00,232.00
             258.00,232.00 244.00,188.00 244.00,176.00
             244.00,164.00 258.00,130.00 258.00,130.00 Z
           M 302.00,136.00
           C 302.00,134.00 342.00,114.00 342.00,114.00
             342.00,114.00 352.00,142.00 352.00,144.00
             352.00,146.00 382.00,284.00 382.00,284.00
             382.00,284.00 382.00,332.00 382.00,334.00
             382.00,336.00 386.00,404.00 386.00,408.00
             386.00,412.00 396.00,540.00 396.00,544.00
             396.00,548.00 394.00,640.00 388.00,640.00
             382.00,640.00 354.00,644.00 346.00,644.00
             338.00,644.00 328.00,454.00 328.00,452.00
             328.00,450.00 336.00,372.00 338.00,358.00
             340.00,344.00 332.00,218.00 332.00,218.00
             332.00,218.00 318.00,196.00 318.00,194.00
             318.00,192.00 302.00,138.00 302.00,136.00 Z
           M 444.00,162.00
           C 448.00,160.00 472.00,166.00 476.00,170.00
             480.00,174.00 490.00,176.00 490.00,188.00
             490.00,200.00 452.00,320.00 450.00,320.00
             448.00,320.00 434.00,366.00 434.00,366.00
             434.00,366.00 414.00,410.00 414.00,414.00
             414.00,418.00 410.00,480.00 410.00,490.00
             410.00,500.00 410.00,552.00 408.00,558.00
             406.00,564.00 406.00,662.00 406.00,662.00
             406.00,662.00 398.00,702.00 398.00,702.00
             398.00,702.00 360.00,718.00 360.00,712.00
             360.00,706.00 356.00,632.00 356.00,620.00
             356.00,608.00 376.00,478.00 374.00,458.00
             372.00,438.00 374.00,366.00 380.00,346.00
             386.00,326.00 424.00,258.00 424.00,258.00
             424.00,258.00 426.00,202.00 426.00,198.00
             426.00,194.00 440.00,164.00 444.00,162.00 Z
           M 554.00,198.00
           C 554.00,196.00 570.00,244.00 570.00,246.00
             570.00,248.00 570.00,286.00 570.00,286.00
             570.00,286.00 566.00,382.00 564.00,382.00
             562.00,382.00 558.00,486.00 558.00,490.00
             558.00,494.00 558.00,540.00 558.00,548.00
             558.00,556.00 560.00,636.00 560.00,640.00
             560.00,644.00 520.00,648.00 520.00,638.00
             520.00,628.00 526.00,522.00 526.00,516.00
             526.00,510.00 526.00,474.00 526.00,470.00
             526.00,466.00 510.00,412.00 510.00,410.00
             510.00,408.00 502.00,366.00 508.00,348.00
             514.00,330.00 518.00,318.00 518.00,300.00
             518.00,282.00 508.00,252.00 508.00,244.00
             508.00,236.00 512.00,204.00 518.00,202.00
             524.00,200.00 554.00,200.00 554.00,198.00 Z
           M 580.00,286.00
           C 580.00,286.00 622.00,274.00 624.00,276.00
             626.00,278.00 644.00,300.00 642.00,322.00
             640.00,344.00 628.00,380.00 626.00,394.00
             624.00,408.00 626.00,414.00 618.00,442.00
             610.00,470.00 584.00,554.00 584.00,554.00
             584.00,554.00 564.00,656.00 564.00,656.00
             564.00,656.00 548.00,674.00 538.00,638.00
             528.00,602.00 540.00,516.00 540.00,500.00
             540.00,484.00 580.00,286.00 580.00,286.00 Z
           M 666.00,232.00
           C 668.00,232.00 698.00,244.00 698.00,246.00
             698.00,248.00 690.00,290.00 684.00,294.00
             678.00,298.00 662.00,342.00 656.00,350.00
             650.00,358.00 644.00,366.00 644.00,370.00
             644.00,374.00 628.00,450.00 628.00,450.00
             628.00,450.00 626.00,464.00 622.00,474.00
             618.00,484.00 596.00,522.00 596.00,522.00
             596.00,522.00 572.00,520.00 570.00,518.00
             568.00,516.00 586.00,422.00 590.00,414.00
             594.00,406.00 642.00,310.00 644.00,304.00M 620.00,170.00
           C 620.00,170.00 658.00,192.00 658.00,194.00
             658.00,196.00 630.00,318.00 630.00,318.00
             630.00,318.00 622.00,346.00 622.00,354.00
             622.00,362.00 602.00,466.00 600.00,466.00
             598.00,466.00 580.00,518.00 580.00,528.00
             580.00,538.00 552.00,596.00 550.00,598.00
             548.00,600.00 524.00,658.00 524.00,658.00
             524.00,658.00 492.00,624.00 492.00,616.00
             492.00,608.00 514.00,486.00 516.00,484.00
             518.00,482.00 546.00,458.00 548.00,452.00
             550.00,446.00 584.00,370.00 584.00,334.00
             584.00,298.00 600.00,276.00 602.00,274.00
             604.00,272.00 616.00,208.00 614.00,200.00
             612.00,192.00 620.00,170.00 620.00,170.00 Z
           M 568.00,102.00
           C 568.00,102.00 584.00,112.00 586.00,112.00
             588.00,112.00 600.00,120.00 600.00,126.00
             600.00,132.00 596.00,174.00 594.00,178.00
             592.00,182.00 588.00,184.00 586.00,194.00
             584.00,204.00 572.00,256.00 572.00,258.00
             572.00,260.00 566.00,296.00 566.00,298.00
             566.00,300.00 552.00,384.00 552.00,390.00
             552.00,396.00 546.00,506.00 546.00,508.00
             546.00,510.00 538.00,558.00 538.00,558.00
             538.00,558.00 522.00,670.00 520.00,670.00
             518.00,670.00 458.00,680.00 456.00,676.00
             454.00,672.00 460.00,586.00 460.00,582.00
             460.00,578.00 478.00,412.00 478.00,410.00
             478.00,408.00 502.00,360.00 502.00,360.00
             502.00,360.00 510.00,254.00 510.00,252.00
             510.00,250.00 532.00,228.00 532.00,228.00
             532.00,228.00 524.00,172.00 528.00,166.00
             532.00,160.00 548.00,140.00 548.00,140.00
             548.00,140.00 568.00,102.00 568.00,102.00 Z
           M 460.00,56.00
           C 460.00,56.00 482.00,64.00 482.00,68.00
             482.00,72.00 484.00,120.00 484.00,122.00
             484.00,124.00 468.00,232.00 468.00,232.00
             468.00,232.00 456.00,300.00 456.00,304.00
             456.00,308.00 446.00,390.00 452.00,392.00
             458.00,394.00 436.00,466.00 436.00,468.00
             436.00,470.00 436.00,550.00 436.00,554.00
             436.00,558.00 426.00,640.00 426.00,644.00
             426.00,648.00 366.00,732.00 364.00,732.00
             362.00,732.00 348.00,642.00 348.00,636.00
             348.00,630.00 400.00,520.00 400.00,520.00
             400.00,520.00 394.00,428.00 396.00,428.00
             398.00,428.00 414.00,300.00 414.00,300.00
             414.00,300.00 430.00,226.00 430.00,226.00
             430.00,226.00 432.00,168.00 432.00,166.00
             432.00,164.00 460.00,56.00 460.00,56.00 Z
           M 392.00,64.00
           C 394.00,60.00 398.00,62.00 406.00,62.00
             428.00,84.00 428.00,110.00 432.00,122.00
             436.00,134.00 436.00,154.00 436.00,176.00
             436.00,198.00 436.00,218.00 436.00,218.00
             436.00,218.00 430.00,268.00 428.00,276.00
             426.00,284.00 426.00,312.00 422.00,326.00
             418.00,340.00 408.00,380.00 406.00,390.00
             404.00,400.00 382.00,442.00 380.00,448.00
             378.00,454.00 376.00,502.00 376.00,510.00
             376.00,518.00 360.00,574.00 360.00,586.00
             360.00,598.00 366.00,586.00 358.00,618.00
             350.00,650.00 328.00,678.00 326.00,678.00
             324.00,678.00 290.00,654.00 290.00,632.00
             290.00,610.00 306.00,544.00 314.00,528.00
             322.00,512.00 340.00,446.00 340.00,442.00
             340.00,438.00 368.00,348.00 368.00,348.00
             368.00,348.00 380.00,278.00 380.00,272.00
             380.00,266.00 382.00,224.00 382.00,210.00
             382.00,196.00 382.00,126.00 382.00,126.00
             382.00,126.00 382.00,112.00 382.00,106.00
             382.00,100.00 390.00,68.00 392.00,64.00 Z
           M 304.00,40.00
           C 304.00,40.00 332.00,54.00 332.00,54.00
             332.00,54.00 342.00,84.00 342.00,88.00
             342.00,92.00 346.00,126.00 346.00,130.00
             346.00,134.00 346.00,174.00 346.00,180.00
             346.00,186.00 348.00,244.00 348.00,244.00
             348.00,244.00 346.00,304.00 346.00,306.00
             346.00,308.00 332.00,380.00 332.00,380.00
             332.00,380.00 330.00,472.00 330.00,472.00
             330.00,472.00 330.00,578.00 330.00,578.00
             330.00,578.00 314.00,716.00 312.00,718.00
             310.00,720.00 268.00,706.00 268.00,702.00
             268.00,698.00 280.00,590.00 280.00,590.00
             280.00,590.00 286.00,568.00 286.00,558.00
             286.00,548.00 294.00,460.00 294.00,460.00
             294.00,460.00 290.00,404.00 290.00,392.00
             290.00,380.00 296.00,376.00 304.00,350.00
             312.00,324.00 318.00,312.00 318.00,282.00
             318.00,252.00 300.00,222.00 302.00,212.00
             304.00,202.00 300.00,130.00 300.00,128.00
             300.00,126.00 300.00,90.00 300.00,84.00
             300.00,78.00 304.00,40.00 304.00,40.00 Z
           M 118.00,100.00
           C 118.00,100.00 146.00,84.00 146.00,84.00
             146.00,84.00 160.00,90.00 166.00,98.00
             172.00,106.00 182.00,142.00 182.00,142.00
             182.00,142.00 184.00,174.00 186.00,178.00
             188.00,182.00 202.00,232.00 202.00,234.00
             202.00,236.00 202.00,254.00 202.00,266.00
             202.00,278.00 224.00,346.00 224.00,348.00
             224.00,350.00 248.00,406.00 248.00,420.00
             248.00,434.00 268.00,490.00 268.00,492.00
             268.00,494.00 302.00,606.00 302.00,606.00
             302.00,606.00 278.00,656.00 276.00,656.00
             274.00,656.00 236.00,612.00 234.00,608.00
             232.00,604.00 210.00,510.00 210.00,510.00
             210.00,510.00 178.00,388.00 178.00,386.00
             178.00,384.00 158.00,262.00 158.00,262.00
             158.00,262.00 148.00,218.00 146.00,216.00
             144.00,214.00 122.00,162.00 122.00,162.00
             122.00,162.00 118.00,100.00 118.00,100.00 Z
           M 66.00,218.00
           C 66.00,218.00 88.00,206.00 94.00,204.00
             100.00,202.00 130.00,216.00 130.00,218.00
             130.00,220.00 142.00,258.00 142.00,258.00
             142.00,258.00 154.00,318.00 154.00,318.00
             154.00,318.00 156.00,370.00 158.00,372.00
             160.00,374.00 172.00,408.00 174.00,416.00
             176.00,424.00 196.00,456.00 198.00,476.00
             200.00,496.00 210.00,532.00 210.00,534.00
             210.00,536.00 204.00,550.00 202.00,550.00
             200.00,550.00 136.00,540.00 136.00,540.00
             136.00,540.00 132.00,492.00 132.00,490.00
             132.00,488.00 122.00,408.00 122.00,398.00
             122.00,388.00 94.00,300.00 94.00,300.00
             94.00,300.00 78.00,254.00 78.00,254.00
             78.00,254.00 66.00,218.00 66.00,218.00 Z
           M 26.00,280.00
           C 26.00,276.00 34.00,256.00 36.00,256.00
             38.00,256.00 56.00,248.00 56.00,250.00
             56.00,252.00 78.00,286.00 78.00,286.00
             78.00,286.00 116.00,328.00 116.00,330.00
             116.00,332.00 152.00,394.00 154.00,408.00
             156.00,422.00 176.00,466.00 176.00,466.00
             176.00,466.00 228.00,548.00 228.00,548.00
             228.00,548.00 220.00,592.00 216.00,592.00
             212.00,592.00 136.00,560.00 134.00,556.00
             132.00,552.00 112.00,450.00 112.00,450.00
             112.00,450.00 96.00,390.00 94.00,388.00
             92.00,386.00 68.00,360.00 68.00,356.00
             68.00,352.00 60.00,332.00 58.00,326.00
             56.00,320.00 24.00,300.00 24.00,300.00
             24.00,300.00 26.00,284.00 26.00,280.00 Z
           M 104.00,502.00
           C 84.00,454.00 88.00,432.00 88.00,422.00
             88.00,412.00 82.00,398.00 82.00,380.00
             82.00,362.00 80.00,330.00 88.00,326.00
             96.00,322.00 116.00,314.00 120.00,314.00
             124.00,314.00 146.00,326.00 146.00,334.00
             146.00,342.00 150.00,402.00 150.00,408.00
             150.00,414.00 154.00,450.00 154.00,462.00
             154.00,474.00 166.00,518.00 166.00,536.00
             166.00,554.00 170.00,626.00 170.00,628.00
             170.00,630.00 114.00,618.00 114.00,616.00
             114.00,614.00 124.00,550.00 104.00,502.00 Z"/>
  <path id="cardboard"
        fill="URL(#cardboardGrad)" stroke="black" stroke-width="1"
        d="M 164.00,912.00
           C 164.00,912.00 138.00,888.00 138.00,886.00
             138.00,884.00 122.00,864.00 122.00,862.00
             122.00,860.00 114.00,804.00 114.00,802.00
             114.00,800.00 104.00,694.00 100.00,686.00
             96.00,678.00 86.00,614.00 86.00,606.00
             86.00,598.00 76.00,524.00 74.00,518.00
             72.00,512.00 60.00,462.00 60.00,456.00
             60.00,450.00 50.00,382.00 50.00,376.00
             50.00,370.00 46.00,346.00 46.00,346.00
             46.00,346.00 62.00,356.00 64.00,358.00
             66.00,360.00 80.00,378.00 92.00,384.00
             104.00,390.00 112.00,392.00 116.00,392.00
             120.00,392.00 136.00,410.00 138.00,414.00
             140.00,418.00 148.00,432.00 154.00,444.00
             160.00,456.00 168.00,468.00 174.00,472.00
             180.00,476.00 208.00,494.00 208.00,496.00
             208.00,498.00 252.00,522.00 258.00,526.00
             264.00,530.00 288.00,540.00 298.00,540.00
             308.00,540.00 322.00,546.00 338.00,546.00
             354.00,546.00 388.00,542.00 392.00,540.00
             396.00,538.00 430.00,532.00 432.00,530.00
             434.00,528.00 468.00,530.00 478.00,520.00
             488.00,510.00 492.00,512.00 504.00,502.00
             516.00,492.00 540.00,474.00 544.00,468.00
             548.00,462.00 576.00,432.00 578.00,428.00
             580.00,424.00 598.00,406.00 598.00,404.00
             598.00,402.00 608.00,374.00 608.00,374.00
             608.00,374.00 630.00,364.00 630.00,364.00
             630.00,364.00 668.00,354.00 668.00,354.00
             668.00,354.00 678.00,340.00 680.00,340.00
             682.00,340.00 692.00,346.00 690.00,350.00
             688.00,354.00 682.00,396.00 682.00,396.00
             682.00,396.00 670.00,418.00 670.00,438.00
             670.00,458.00 664.00,482.00 662.00,498.00
             660.00,514.00 650.00,534.00 648.00,554.00
             646.00,574.00 622.00,668.00 622.00,668.00
             622.00,668.00 616.00,712.00 616.00,716.00
             616.00,720.00 604.00,786.00 604.00,790.00
             604.00,794.00 602.00,838.00 602.00,840.00
             602.00,842.00 586.00,872.00 586.00,872.00
             586.00,872.00 574.00,888.00 570.00,892.00
             566.00,896.00 540.00,898.00 540.00,896.00
             540.00,894.00 498.00,888.00 496.00,888.00
             494.00,888.00 424.00,884.00 420.00,884.00
             416.00,884.00 380.00,878.00 380.00,878.00
             380.00,878.00 324.00,884.00 324.00,884.00
             324.00,884.00 246.00,890.00 244.00,890.00
             242.00,890.00 218.00,898.00 216.00,898.00
             214.00,898.00 164.00,912.00 164.00,912.00 Z" />
  <defs>
    <radialGradient id="cardboardGrad" cx="50%" cy="50%" r="70%">
      <stop stop-color="#F88" offset="0%"/>
      <stop stop-color="#C33" offset="50%"/>
      <stop stop-color="#333" offset="100%"/>
    </radialGradient>
    <radialGradient id="friesGrad" cx="50%" cy="50%" r="70%">
      <stop stop-color="#FF8" offset="0%"/>
      <stop stop-color="#CC3" offset="50%"/>
      <stop stop-color="#333" offset="100%"/>
    </radialGradient>
  </defs>
</svg>
