<?xml version="1.0" encoding="UTF-8" standalone="no"?>
<!DOCTYPE svg PUBLIC "-//W3C//DTD SVG 20010904//EN"
              "http://www.w3.org/TR/2001/REC-SVG-20010904/DTD/svg10.dtd">

<svg xmlns="http://www.w3.org/2000/svg"
     width="3.41in" height="3.41333in"
     viewBox="0 0 1023 1024">
  <path id="breadBack"
      fill="URL(#breadBackGrad)" stroke="black" stroke-width="1"
      d="M 876.45,463.95
           C 910.66,428.75 894.17,401.43 881.37,356.88
             874.23,282.55 732.70,169.32 712.27,167.11
             671.90,146.93 575.91,140.77 548.84,149.39
             545.64,150.86 531.85,188.28 525.45,191.23
             519.05,194.19 513.88,208.22 456.29,234.80
             393.03,291.16 374.82,268.52 420.35,325.13
             465.89,381.74 459.98,368.94 459.98,419.40
             459.98,469.86 462.93,476.26 476.23,505.06
             489.52,533.86 493.46,559.21 494.19,586.04
             494.93,612.87 821.80,496.94 876.45,463.95 Z"/>
  <path id="meat"
        fill="URL(#meatGrad)" stroke="black" stroke-width="1"
        d="M 833.86,60.53
           C 838.79,54.38 879.89,0.47 923.46,69.64
             967.03,138.80 994.35,172.77 993.61,196.40
             992.87,220.03 949.55,294.36 933.31,309.62
             917.06,324.88 867.59,343.84 855.77,318.24
             843.96,292.64 801.37,242.43 798.42,236.03
             795.47,229.63 828.94,167.60 828.94,167.60
             828.94,167.60 828.94,66.68 833.86,60.53 Z"/>
  <path fill="URL(#meatGrad)" stroke="black" stroke-width="1"
      d="M 679.54,155.05
           C 649.75,199.85 625.88,206.98 642.37,234.31
             658.86,261.63 727.78,326.85 741.81,332.02
             755.84,337.19 842.23,347.78 886.05,308.15
             929.86,268.52 965.06,252.27 939.70,205.75
             914.35,159.23 897.61,139.79 869.55,129.45
             841.49,119.11 780.70,96.71 775.28,118.62
             769.87,140.53 775.78,153.33 756.58,162.19
             737.38,171.05 709.32,110.25 679.54,155.05 Z"/>
  <path fill="URL(#meatGrad)" stroke="black" stroke-width="1"
      d="M 614.80,107.30
           C 631.29,33.70 644.58,12.04 682.24,17.95
             719.90,23.86 706.86,-12.82 760.27,44.04
             813.68,100.90 837.56,144.22 824.76,150.13
             811.96,156.03 768.39,187.78 749.19,196.65
             729.99,205.51 720.39,260.40 694.06,194.92
             667.72,129.45 655.91,103.85 648.03,103.61
             640.15,103.36 598.31,180.89 614.80,107.30 Z"/>
  <path fill="URL(#meatGrad)" stroke="black" stroke-width="1"
      d="M 695.04,365.25
           C 606.68,266.30 584.53,319.22 549.33,285.01
             514.13,250.80 491.49,269.01 519.79,221.01
             548.10,173.02 550.31,152.59 577.63,136.10
             604.95,119.60 641.63,157.02 658.37,176.46
             675.10,195.91 688.89,208.95 698.73,247.10
             708.58,285.26 707.60,316.76 708.83,327.84
             710.06,338.91 783.41,464.20 695.04,365.25 Z"/>
  <path fill="URL(#meatGrad)" stroke="black" stroke-width="1"
      d="M 761.50,256.95
           C 725.07,262.12 654.18,259.90 667.23,296.58
             680.27,333.25 683.97,366.48 704.15,376.57
             724.33,386.67 767.65,413.25 823.53,391.34
             879.40,369.44 954.47,338.67 982.29,306.42
             1010.10,274.18 1018.72,250.80 989.42,229.38
             960.13,207.97 908.20,204.77 889.25,205.75
             870.29,206.74 898.60,259.66 895.15,269.01
             891.71,278.36 822.79,314.05 810.24,312.08
             797.68,310.12 797.93,251.78 761.50,256.95 Z"/>
  <path fill="URL(#meatGrad)" stroke="black" stroke-width="1"
      d="M 681.26,402.66
           C 790.54,437.62 737.13,532.13 740.33,530.66
             743.53,529.18 781.44,527.21 807.28,507.52
             833.13,487.83 878.17,459.28 883.59,437.37
             889.00,415.46 883.59,386.91 934.29,379.03
             984.99,371.16 1016.50,372.14 976.38,344.08
             936.26,316.02 922.48,302.98 893.68,316.27
             864.88,329.56 833.62,371.16 827.22,374.11
             820.82,377.07 781.19,383.71 756.33,371.90
             731.47,360.08 698.49,355.90 688.89,360.33
             679.29,364.76 571.97,367.71 681.26,402.66 Z"/>
  <path fill="URL(#meatGrad)" stroke="black" stroke-width="1"
      d="M 644.83,508.75
           C 625.88,509.74 576.40,528.69 561.14,512.44
             545.88,496.20 521.27,426.05 521.51,418.17
             521.76,410.30 541.21,343.10 547.61,340.15
             554.00,337.19 580.83,285.99 627.35,311.10
             673.87,336.21 710.06,338.91 722.61,391.34
             735.16,443.77 741.07,456.57 727.53,486.11
             714.00,515.64 663.78,507.77 644.83,508.75 Z"/>
  <path fill="URL(#meatGrad)" stroke="black" stroke-width="1"
      d="M 399.43,439.59
           C 395.00,429.99 366.20,392.82 373.09,374.11
             379.98,355.41 395.74,305.44 408.54,299.53
             421.34,293.63 474.99,292.15 481.39,289.20
             487.79,286.24 552.53,283.53 560.40,283.78
             568.28,284.03 598.80,316.52 601.76,322.92
             604.71,329.32 616.52,354.91 601.76,373.37
             586.99,391.83 549.82,420.63 527.42,430.97
             505.02,441.31 447.43,467.89 441.03,470.85
             434.63,473.80 403.86,449.19 399.43,439.59 Z" />
  <path id="breadMid"
      fill="URL(#breadBackGrad)" stroke="black" stroke-width="1"
      d="M 922.72,446.48
           C 922.72,446.48 909.18,476.01 894.42,494.47
             879.65,512.93 900.32,507.27 829.44,555.52
             758.55,603.76 755.35,605.24 697.50,639.70
             639.66,674.16 621.94,686.22 560.90,722.15
             499.86,758.09 445.21,791.07 429.21,798.46
             413.21,805.84 408.29,812.00 364.23,859.50
             320.17,907.01 270.21,941.71 251.01,950.57
             231.81,959.43 194.89,980.36 177.41,984.54
             159.94,988.72 80.43,959.43 71.57,940.23
             62.71,921.04 56.56,865.65 68.13,848.67
             79.70,831.69 51.64,821.35 131.38,741.85
             211.13,662.34 200.80,639.94 231.07,579.39
             261.35,518.84 362.02,425.80 370.39,410.30
             378.75,394.79 409.52,368.94 422.32,363.04
             464.66,370.67 475.24,385.19 529.64,410.54
             584.03,435.89 632.03,413.74 666.49,421.13
             700.95,428.51 688.40,426.54 733.93,432.69
             779.47,438.85 813.93,446.23 832.88,445.25
             851.83,444.26 922.72,446.48 922.72,446.48 Z" />
  <path id="breadFront"
      fill="URL(#breadBackGrad)" stroke="black" stroke-width="1"
      d="M 412.72,266.55
           C 420.10,282.55 427.74,290.67 439.55,316.27
             451.36,341.87 480.16,379.04 474.75,400.94
             469.33,422.85 493.21,466.17 502.07,485.37
             510.93,504.57 559.42,567.58 528.41,601.30
             497.39,635.02 506.75,638.47 466.63,660.87
             426.51,683.26 440.54,688.43 381.71,703.94
             282.27,757.60 284.98,771.87 245.59,821.10
             206.21,870.33 190.70,861.96 178.40,902.58
             166.09,943.19 171.75,963.86 159.94,988.72
             148.12,1013.58 114.89,1017.28 104.31,1002.75
             93.73,988.23 82.65,989.46 67.88,957.46
             53.11,925.47 21.12,940.23 30.96,877.47
             58.04,767.94 69.85,743.08 84.86,716.74
             99.88,690.40 117.60,678.34 145.41,646.10
             173.23,613.85 157.97,597.61 188.98,563.89
             219.99,530.17 216.55,539.52 247.81,497.92
             279.07,456.32 245.84,510.47 297.53,420.63
             365.95,299.78 405.34,250.55 412.72,266.55 Z" />
  <defs>
    <radialGradient id="breadBackGrad" cx="50%" cy="50%" r="70%">
      <stop stop-color="#eca" offset="0%"/>
      <stop stop-color="#631" offset="100%"/>
    </radialGradient>
    <radialGradient id="meatGrad" cx="50%" cy="50%" r="70%">
      <stop stop-color="#543" offset="0%"/>
      <stop stop-color="#321" offset="100%"/>
    </radialGradient>
  </defs>
</svg>
